<mxfile host="Electron" agent="Mozilla/5.0 (Windows NT 10.0; Win64; x64) AppleWebKit/537.36 (KHTML, like Gecko) draw.io/24.7.17 Chrome/128.0.6613.36 Electron/32.0.1 Safari/537.36" version="24.7.17">
  <diagram name="第 1 页" id="uaZmd3WzTnTc4BxaCLYT">
    <mxGraphModel dx="1084" dy="495" grid="1" gridSize="10" guides="1" tooltips="1" connect="1" arrows="1" fold="1" page="1" pageScale="1" pageWidth="827" pageHeight="1169" math="0" shadow="0">
      <root>
        <mxCell id="0" />
        <mxCell id="1" parent="0" />
        <mxCell id="KJvvbd6Wgd_v79JZ3kaC-1" value="" style="rounded=0;whiteSpace=wrap;html=1;strokeWidth=0;strokeColor=none;" parent="1" vertex="1">
          <mxGeometry x="130" y="120" width="600" height="360" as="geometry" />
        </mxCell>
        <mxCell id="KJvvbd6Wgd_v79JZ3kaC-2" value="" style="rounded=0;whiteSpace=wrap;html=1;fillColor=#bac8d3;strokeColor=none;strokeWidth=0;" parent="1" vertex="1">
          <mxGeometry x="130" y="40" width="600" height="80" as="geometry" />
        </mxCell>
        <mxCell id="KJvvbd6Wgd_v79JZ3kaC-5" style="edgeStyle=orthogonalEdgeStyle;rounded=0;orthogonalLoop=1;jettySize=auto;html=1;exitX=0.5;exitY=1;exitDx=0;exitDy=0;entryX=0.5;entryY=0;entryDx=0;entryDy=0;" parent="1" source="KJvvbd6Wgd_v79JZ3kaC-3" target="KJvvbd6Wgd_v79JZ3kaC-4" edge="1">
          <mxGeometry relative="1" as="geometry" />
        </mxCell>
        <mxCell id="KJvvbd6Wgd_v79JZ3kaC-3" value="GC Root" style="rounded=0;whiteSpace=wrap;html=1;fillColor=#d5e8d4;strokeColor=#82b366;" parent="1" vertex="1">
          <mxGeometry x="227.5" y="50" width="120" height="60" as="geometry" />
        </mxCell>
        <mxCell id="KJvvbd6Wgd_v79JZ3kaC-8" style="rounded=0;orthogonalLoop=1;jettySize=auto;html=1;exitX=0.5;exitY=1;exitDx=0;exitDy=0;entryX=0.5;entryY=0;entryDx=0;entryDy=0;" parent="1" source="KJvvbd6Wgd_v79JZ3kaC-4" target="KJvvbd6Wgd_v79JZ3kaC-6" edge="1">
          <mxGeometry relative="1" as="geometry" />
        </mxCell>
        <mxCell id="KJvvbd6Wgd_v79JZ3kaC-9" style="rounded=0;orthogonalLoop=1;jettySize=auto;html=1;exitX=0.5;exitY=1;exitDx=0;exitDy=0;entryX=0.5;entryY=0;entryDx=0;entryDy=0;" parent="1" source="KJvvbd6Wgd_v79JZ3kaC-4" target="KJvvbd6Wgd_v79JZ3kaC-7" edge="1">
          <mxGeometry relative="1" as="geometry" />
        </mxCell>
        <mxCell id="KJvvbd6Wgd_v79JZ3kaC-4" value="Object 1" style="rounded=0;whiteSpace=wrap;html=1;fillColor=#d5e8d4;strokeColor=#82b366;" parent="1" vertex="1">
          <mxGeometry x="227.5" y="170" width="120" height="60" as="geometry" />
        </mxCell>
        <mxCell id="KJvvbd6Wgd_v79JZ3kaC-6" value="Object 2" style="rounded=0;whiteSpace=wrap;html=1;fillColor=#d5e8d4;strokeColor=#82b366;" parent="1" vertex="1">
          <mxGeometry x="152.5" y="290" width="120" height="60" as="geometry" />
        </mxCell>
        <mxCell id="KJvvbd6Wgd_v79JZ3kaC-11" style="edgeStyle=orthogonalEdgeStyle;rounded=0;orthogonalLoop=1;jettySize=auto;html=1;exitX=0.5;exitY=1;exitDx=0;exitDy=0;entryX=0.5;entryY=0;entryDx=0;entryDy=0;" parent="1" source="KJvvbd6Wgd_v79JZ3kaC-7" target="KJvvbd6Wgd_v79JZ3kaC-10" edge="1">
          <mxGeometry relative="1" as="geometry" />
        </mxCell>
        <mxCell id="KJvvbd6Wgd_v79JZ3kaC-7" value="Object 3" style="rounded=0;whiteSpace=wrap;html=1;fillColor=#d5e8d4;strokeColor=#82b366;" parent="1" vertex="1">
          <mxGeometry x="302.5" y="290" width="120" height="60" as="geometry" />
        </mxCell>
        <mxCell id="KJvvbd6Wgd_v79JZ3kaC-10" value="Object 4" style="rounded=0;whiteSpace=wrap;html=1;fillColor=#d5e8d4;strokeColor=#82b366;" parent="1" vertex="1">
          <mxGeometry x="302.5" y="410" width="120" height="60" as="geometry" />
        </mxCell>
        <mxCell id="KJvvbd6Wgd_v79JZ3kaC-12" style="rounded=0;orthogonalLoop=1;jettySize=auto;html=1;exitX=0.5;exitY=1;exitDx=0;exitDy=0;entryX=0.5;entryY=0;entryDx=0;entryDy=0;" parent="1" source="KJvvbd6Wgd_v79JZ3kaC-14" target="KJvvbd6Wgd_v79JZ3kaC-15" edge="1">
          <mxGeometry relative="1" as="geometry" />
        </mxCell>
        <mxCell id="KJvvbd6Wgd_v79JZ3kaC-13" style="rounded=0;orthogonalLoop=1;jettySize=auto;html=1;exitX=0.5;exitY=1;exitDx=0;exitDy=0;entryX=0.5;entryY=0;entryDx=0;entryDy=0;" parent="1" source="KJvvbd6Wgd_v79JZ3kaC-14" target="KJvvbd6Wgd_v79JZ3kaC-16" edge="1">
          <mxGeometry relative="1" as="geometry" />
        </mxCell>
        <mxCell id="KJvvbd6Wgd_v79JZ3kaC-14" value="Object 5" style="rounded=0;whiteSpace=wrap;html=1;fillColor=#f8cecc;strokeColor=#b85450;" parent="1" vertex="1">
          <mxGeometry x="512.5" y="170" width="120" height="60" as="geometry" />
        </mxCell>
        <mxCell id="KJvvbd6Wgd_v79JZ3kaC-15" value="Object 6" style="rounded=0;whiteSpace=wrap;html=1;fillColor=#f8cecc;strokeColor=#b85450;" parent="1" vertex="1">
          <mxGeometry x="437.5" y="290" width="120" height="60" as="geometry" />
        </mxCell>
        <mxCell id="KJvvbd6Wgd_v79JZ3kaC-16" value="Object 7" style="rounded=0;whiteSpace=wrap;html=1;fillColor=#f8cecc;strokeColor=#b85450;" parent="1" vertex="1">
          <mxGeometry x="587.5" y="290" width="120" height="60" as="geometry" />
        </mxCell>
        <mxCell id="KJvvbd6Wgd_v79JZ3kaC-17" value="存活" style="rounded=0;whiteSpace=wrap;html=1;fillColor=#d5e8d4;strokeColor=#82b366;" parent="1" vertex="1">
          <mxGeometry x="542.5" y="420" width="60" height="40" as="geometry" />
        </mxCell>
        <mxCell id="KJvvbd6Wgd_v79JZ3kaC-18" value="死亡" style="rounded=0;whiteSpace=wrap;html=1;fillColor=#f8cecc;strokeColor=#b85450;" parent="1" vertex="1">
          <mxGeometry x="617.5" y="420" width="60" height="40" as="geometry" />
        </mxCell>
      </root>
    </mxGraphModel>
  </diagram>
</mxfile>
